<svg width="20" height="19" viewBox="0 0 20 19" fill="none" xmlns="http://www.w3.org/2000/svg">
<path d="M18.5195 0H1.47656C0.660156 0 0 0.612305 0 1.36934V17.627C0 18.384 0.660156 19 1.47656 19H18.5195C19.3359 19 20 18.384 20 17.6307V1.36934C20 0.612305 19.3359 0 18.5195 0ZM5.93359 16.1908H2.96484V7.12129H5.93359V16.1908ZM4.44922 5.88555C3.49609 5.88555 2.72656 5.15449 2.72656 4.25273C2.72656 3.35098 3.49609 2.61992 4.44922 2.61992C5.39844 2.61992 6.16797 3.35098 6.16797 4.25273C6.16797 5.15078 5.39844 5.88555 4.44922 5.88555ZM17.043 16.1908H14.0781V11.7822C14.0781 10.732 14.0586 9.37754 12.5352 9.37754C10.9922 9.37754 10.7578 10.5242 10.7578 11.708V16.1908H7.79688V7.12129H10.6406V8.36074H10.6797C11.0742 7.64824 12.043 6.89492 13.4844 6.89492C16.4883 6.89492 17.043 8.77266 17.043 11.2145V16.1908Z" fill="white"/>
</svg>
