<svg width="151" height="50" viewBox="0 0 151 50" fill="none" xmlns="http://www.w3.org/2000/svg">
<g clip-path="url(#clip0_355_650)">
<path d="M27.1208 20.2217H31.6863C32.322 20.2217 32.9238 20.2777 33.4919 20.3896C34.0584 20.5016 34.554 20.6944 34.9756 20.9681C35.3973 21.2417 35.7336 21.6118 35.983 22.0752C36.2309 22.5402 36.3564 23.1233 36.3564 23.8277C36.3564 24.5321 36.2405 25.1028 36.0088 25.5724C35.7771 26.042 35.4584 26.4167 35.0545 26.6966C34.649 26.9765 34.1694 27.1755 33.6142 27.2922C33.059 27.4088 32.4572 27.4679 31.8086 27.4679H29.8292V32.0971H27.1208V20.2217ZM29.8276 25.2536H31.6332C31.8762 25.2536 32.1112 25.2318 32.3365 25.1867C32.5618 25.1416 32.7645 25.067 32.9448 24.9597C33.1234 24.854 33.2682 24.7078 33.3793 24.5243C33.4887 24.3393 33.5434 24.1076 33.5434 23.8277C33.5434 23.526 33.471 23.2819 33.3262 23.0984C33.1813 22.9133 32.9963 22.7718 32.771 22.6708C32.5457 22.5697 32.293 22.5059 32.0162 22.478C31.7378 22.45 31.4723 22.436 31.218 22.436H29.8292V25.2536H29.8276Z" fill="white"/>
<path d="M40.3313 19.416V25.0528H40.3667C40.4247 24.8958 40.5228 24.7403 40.6612 24.5832C40.7996 24.4262 40.967 24.2862 41.1649 24.1634C41.3612 24.0405 41.593 23.9395 41.8601 23.8617C42.1256 23.784 42.4153 23.7435 42.7275 23.7435C43.3873 23.7435 43.92 23.8415 44.3239 24.0374C44.7294 24.2333 45.0448 24.5039 45.2701 24.8507C45.4954 25.1974 45.6483 25.6048 45.7304 26.076C45.8108 26.5456 45.8511 27.0541 45.8511 27.603V32.0984H43.2473V28.1068C43.2473 27.872 43.2392 27.6294 43.2215 27.3775C43.2038 27.1256 43.1523 26.8939 43.0654 26.6809C42.9785 26.4678 42.845 26.2952 42.6664 26.1615C42.4861 26.0278 42.2286 25.9609 41.8939 25.9609C41.5592 25.9609 41.2856 26.02 41.078 26.1366C40.8704 26.2533 40.7111 26.4103 40.6001 26.6062C40.4906 26.8022 40.4182 27.023 40.3828 27.2687C40.3474 27.5143 40.3313 27.7725 40.3313 28.0399V32.1H37.7275V19.416H40.3313Z" fill="white"/>
<path d="M47.5182 21.3795C47.5182 20.9767 47.6662 20.6331 47.9607 20.3485C48.2552 20.064 48.6109 19.9209 49.0277 19.9209C49.4445 19.9209 49.8001 20.064 50.0946 20.3485C50.3891 20.6331 50.5372 20.9783 50.5372 21.3795C50.5372 21.7807 50.3891 22.1259 50.0946 22.4104C49.8001 22.695 49.4445 22.838 49.0277 22.838C48.6109 22.838 48.2552 22.695 47.9607 22.4104C47.6662 22.1259 47.5182 21.7822 47.5182 21.3795ZM47.7258 23.9452H50.3296V32.0979H47.7258V23.9452Z" fill="white"/>
<path d="M61.0586 32.0984H58.6624V31.0255H58.627C58.5224 31.1717 58.3872 31.3194 58.2182 31.4702C58.0508 31.621 57.8529 31.7579 57.6276 31.8807C57.4023 32.0036 57.1529 32.1046 56.8809 32.1824C56.609 32.2601 56.3273 32.3006 56.0393 32.3006C55.4149 32.3006 54.8468 32.1964 54.3383 31.9896C53.8282 31.7828 53.392 31.492 53.0283 31.1172C52.663 30.7425 52.383 30.2978 52.1867 29.7831C51.9904 29.2684 51.8922 28.7039 51.8922 28.0881C51.8922 27.5175 51.9823 26.9732 52.161 26.4523C52.3396 25.9329 52.5955 25.4711 52.9254 25.0684C53.2553 24.6656 53.6576 24.3437 54.1323 24.1043C54.607 23.8648 55.1445 23.7435 55.7464 23.7435C56.2903 23.7435 56.7972 23.8244 57.2655 23.9861C57.7338 24.1478 58.1184 24.4246 58.4194 24.8165H58.4548V19.416H61.0586V32.0969V32.0984ZM58.6624 28.0213C58.6624 27.4071 58.4805 26.9079 58.1152 26.5285C57.7499 26.1491 57.2382 25.9578 56.5784 25.9578C55.9186 25.9578 55.4068 26.1475 55.0415 26.5285C54.6762 26.9095 54.4944 27.4071 54.4944 28.0213C54.4944 28.6355 54.6762 29.1346 55.0415 29.5141C55.4052 29.895 55.9186 30.0847 56.5784 30.0847C57.2382 30.0847 57.7499 29.895 58.1152 29.5141C58.4805 29.1346 58.6624 28.637 58.6624 28.0213Z" fill="white"/>
<path d="M71.1277 30.6897C70.7109 31.2044 70.1847 31.6009 69.5474 31.8808C68.9101 32.1607 68.2519 32.3006 67.568 32.3006C66.8841 32.3006 66.3096 32.1995 65.7367 31.9989C65.1638 31.7984 64.6665 31.5091 64.2433 31.1344C63.82 30.7596 63.4885 30.3102 63.2455 29.7847C63.0025 29.2591 62.8818 28.6713 62.8818 28.0229C62.8818 27.3744 63.0025 26.7867 63.2455 26.2611C63.4885 25.7355 63.8216 25.2861 64.2433 24.9114C64.6649 24.5366 65.1638 24.2489 65.7367 24.0468C66.3096 23.8462 66.9195 23.7451 67.568 23.7451C68.1699 23.7451 68.717 23.8462 69.2078 24.0468C69.7003 24.2474 70.1171 24.5366 70.4582 24.9114C70.7994 25.2861 71.0633 25.7355 71.2484 26.2611C71.4334 26.7867 71.5268 27.3744 71.5268 28.0229V28.8112H65.4856C65.5902 29.2917 65.8155 29.6758 66.1631 29.9604C66.5107 30.2449 66.9388 30.388 67.4473 30.388C67.8754 30.388 68.2374 30.2962 68.5319 30.1112C68.8264 29.9262 69.0839 29.6898 69.3044 29.399L71.1277 30.6912V30.6897ZM68.923 27.0992C68.9343 26.6747 68.7894 26.3108 68.4885 26.0092C68.1876 25.7075 67.7997 25.5567 67.325 25.5567C67.0353 25.5567 66.7811 25.6018 66.5606 25.6904C66.3401 25.7806 66.1519 25.8941 65.9958 26.034C65.8397 26.174 65.7173 26.3357 65.6304 26.5208C65.5435 26.7058 65.4937 26.8986 65.4824 27.0992H68.9198H68.923Z" fill="white"/>
<path d="M73.1409 19.416H75.7446V32.0969H73.1409V19.416Z" fill="white"/>
<path d="M77.4456 21.3795C77.4456 20.9767 77.5936 20.6331 77.8881 20.3485C78.1826 20.064 78.5382 19.9209 78.955 19.9209C79.3718 19.9209 79.7275 20.064 80.022 20.3485C80.3165 20.6331 80.4645 20.9783 80.4645 21.3795C80.4645 21.7807 80.3165 22.1259 80.022 22.4104C79.7275 22.695 79.3718 22.838 78.955 22.838C78.5382 22.838 78.1826 22.695 77.8881 22.4104C77.5936 22.1259 77.4456 21.7822 77.4456 21.3795ZM77.6548 23.9452H80.2585V32.0979H77.6548V23.9452Z" fill="white"/>
<path d="M86.9064 26.345C86.525 25.8863 86.0213 25.6577 85.3953 25.6577C85.1748 25.6577 84.9608 25.7075 84.7532 25.8086C84.5456 25.9096 84.441 26.0823 84.441 26.3279C84.441 26.5285 84.5488 26.6778 84.7628 26.7727C84.9769 26.8675 85.2488 26.9515 85.5787 27.0246C85.9086 27.0977 86.2611 27.1754 86.6376 27.2594C87.0142 27.3433 87.3666 27.4755 87.6965 27.6543C88.0264 27.8332 88.2984 28.0757 88.5124 28.3836C88.7264 28.6915 88.8343 29.102 88.8343 29.6167C88.8343 30.1314 88.7152 30.5761 88.4786 30.9167C88.2404 31.2572 87.9379 31.5325 87.5678 31.7393C87.1977 31.9461 86.7809 32.0922 86.3174 32.1747C85.8539 32.2586 85.3969 32.3006 84.9463 32.3006C84.3557 32.3006 83.7603 32.2198 83.1584 32.058C82.5565 31.8963 82.048 31.6086 81.6312 31.1935L83.2115 29.4985C83.4545 29.7893 83.7233 30.0101 84.0194 30.161C84.3155 30.3118 84.6582 30.388 85.0525 30.388C85.3534 30.388 85.6254 30.346 85.8684 30.262C86.1114 30.1781 86.2321 30.0241 86.2321 29.8002C86.2321 29.5872 86.1243 29.4286 85.9102 29.3228C85.6962 29.2171 85.4243 29.1269 85.0944 29.0538C84.7645 28.9807 84.412 28.903 84.0355 28.819C83.6589 28.735 83.3065 28.6091 82.9766 28.4412C82.6467 28.2732 82.3747 28.0353 82.1607 27.729C81.9466 27.4211 81.8388 27.0106 81.8388 26.4959C81.8388 26.0154 81.9402 25.6018 82.143 25.255C82.3457 24.9082 82.6113 24.6237 82.9412 24.3998C83.2711 24.1758 83.6492 24.011 84.0789 23.9053C84.507 23.7995 84.9415 23.7451 85.3808 23.7451C85.936 23.7451 86.4976 23.8229 87.0641 23.9799C87.6305 24.137 88.1117 24.4153 88.5044 24.8181L86.908 26.345H86.9064Z" fill="white"/>
<path d="M103.678 23.3084C103.411 22.9959 103.084 22.7548 102.698 22.5869C102.31 22.419 101.861 22.335 101.353 22.335C100.844 22.335 100.373 22.4298 99.9382 22.6195C99.5037 22.8093 99.1271 23.0752 98.8101 23.4157C98.4915 23.7578 98.2437 24.1621 98.0634 24.6317C97.8832 25.1013 97.7947 25.6098 97.7947 26.1587C97.7947 26.7076 97.8848 27.2301 98.0634 27.6934C98.2421 28.1584 98.4883 28.5596 98.8005 28.9017C99.1127 29.2438 99.4796 29.5081 99.9028 29.6978C100.324 29.8875 100.78 29.9824 101.266 29.9824C101.821 29.9824 102.313 29.8704 102.742 29.6465C103.17 29.4226 103.522 29.11 103.8 28.7073L106.057 30.3338C105.535 31.0382 104.877 31.5591 104.077 31.8934C103.279 32.2293 102.457 32.3973 101.612 32.3973C100.651 32.3973 99.766 32.2511 98.9566 31.9619C98.1471 31.6711 97.4471 31.2543 96.8565 30.7117C96.2659 30.169 95.8056 29.5128 95.4757 28.7399C95.1458 27.9671 94.9817 27.1072 94.9817 26.1571C94.9817 25.207 95.1458 24.3456 95.4757 23.5743C95.8056 22.803 96.2659 22.1453 96.8565 21.6026C97.4471 21.0599 98.1471 20.6432 98.9566 20.3524C99.766 20.0616 100.653 19.917 101.612 19.917C101.959 19.917 102.322 19.9481 102.696 20.0087C103.073 20.0709 103.443 20.1673 103.807 20.3026C104.171 20.4379 104.521 20.6152 104.858 20.8391C105.192 21.063 105.495 21.3367 105.761 21.6617L103.677 23.3053L103.678 23.3084Z" fill="#428FCB"/>
<path d="M112.497 31.0755H112.463C112.173 31.5109 111.789 31.825 111.309 32.0147C110.828 32.2044 110.323 32.2992 109.79 32.2992C109.396 32.2992 109.018 32.2464 108.652 32.1391C108.289 32.0333 107.967 31.8732 107.688 31.6617C107.41 31.4487 107.191 31.1859 107.029 30.8733C106.866 30.5608 106.786 30.1969 106.786 29.7833C106.786 29.3137 106.876 28.9172 107.054 28.5922C107.233 28.2687 107.476 27.9997 107.783 27.7867C108.091 27.5737 108.44 27.4088 108.834 27.2922C109.227 27.1756 109.636 27.0885 110.059 27.0325C110.48 26.9765 110.904 26.9423 111.327 26.9315C111.749 26.9206 112.14 26.9143 112.499 26.9143C112.499 26.4665 112.334 26.112 112.004 25.8492C111.675 25.5864 111.284 25.4542 110.833 25.4542C110.382 25.4542 110.014 25.5413 109.661 25.7139C109.309 25.8881 108.994 26.1244 108.715 26.4261L107.326 25.0499C107.812 24.6145 108.379 24.2864 109.027 24.0687C109.676 23.851 110.347 23.7422 111.041 23.7422C111.805 23.7422 112.433 23.8339 112.925 24.019C113.417 24.204 113.81 24.4746 114.105 24.8322C114.399 25.1899 114.605 25.6284 114.721 26.1493C114.837 26.6687 114.895 27.2704 114.895 27.9531V32.0971H112.499V31.0739L112.497 31.0755ZM111.855 28.5253C111.658 28.5253 111.412 28.5331 111.118 28.5502C110.823 28.5673 110.538 28.6139 110.266 28.6932C109.995 28.771 109.763 28.8892 109.571 29.0447C109.38 29.2017 109.285 29.4194 109.285 29.6993C109.285 30.001 109.418 30.2249 109.684 30.3695C109.949 30.5157 110.228 30.5872 110.518 30.5872C110.772 30.5872 111.018 30.553 111.255 30.4861C111.491 30.4193 111.704 30.3244 111.889 30.2016C112.074 30.0787 112.222 29.9217 112.331 29.732C112.441 29.5423 112.495 29.3183 112.495 29.0618V28.5253H111.853H111.855Z" fill="#428FCB"/>
<path d="M116.768 23.9453H119.164V25.0182H119.199C119.304 24.8736 119.439 24.7244 119.608 24.5735C119.776 24.4227 119.973 24.2859 120.199 24.163C120.424 24.0402 120.67 23.9391 120.936 23.8613C121.201 23.7836 121.486 23.7432 121.787 23.7432C122.411 23.7432 122.98 23.8473 123.488 24.0542C123.997 24.261 124.434 24.5518 124.798 24.9265C125.163 25.3013 125.443 25.746 125.64 26.2607C125.836 26.7754 125.934 27.3398 125.934 27.9556C125.934 28.5263 125.844 29.0705 125.665 29.5914C125.485 30.1108 125.231 30.5726 124.901 30.9754C124.571 31.3781 124.169 31.7 123.694 31.9395C123.219 32.1789 122.682 32.3002 122.08 32.3002C121.536 32.3002 121.029 32.2194 120.561 32.0576C120.093 31.8959 119.708 31.6191 119.407 31.2273H119.372V35.9249H116.768V23.9453ZM119.162 28.0209C119.162 28.6367 119.344 29.1343 119.71 29.5137C120.075 29.8947 120.587 30.0844 121.246 30.0844C121.906 30.0844 122.418 29.8947 122.783 29.5137C123.149 29.1343 123.33 28.6367 123.33 28.0209C123.33 27.4051 123.149 26.9075 122.783 26.5281C122.42 26.1487 121.906 25.9575 121.246 25.9575C120.587 25.9575 120.075 26.1472 119.71 26.5281C119.344 26.9091 119.162 27.4067 119.162 28.0209Z" fill="#428FCB"/>
<path d="M127.288 21.3795C127.288 20.9767 127.436 20.6331 127.73 20.3485C128.025 20.064 128.38 19.9209 128.797 19.9209C129.214 19.9209 129.57 20.064 129.864 20.3485C130.159 20.6331 130.307 20.9783 130.307 21.3795C130.307 21.7807 130.159 22.1259 129.864 22.4104C129.57 22.695 129.214 22.838 128.797 22.838C128.38 22.838 128.025 22.695 127.73 22.4104C127.436 22.1259 127.288 21.7822 127.288 21.3795ZM127.495 23.9452H130.099V32.0979H127.495V23.9452Z" fill="#428FCB"/>
<path d="M137.72 25.9598H135.429V28.6779C135.429 28.9019 135.44 29.1056 135.464 29.2906C135.487 29.4756 135.54 29.6342 135.62 29.768C135.701 29.9017 135.826 30.0059 135.994 30.079C136.161 30.1521 136.385 30.1878 136.661 30.1878C136.8 30.1878 136.983 30.1738 137.209 30.1458C137.434 30.1178 137.605 30.0541 137.72 29.953V32.0507C137.431 32.1518 137.13 32.2186 136.818 32.2513C136.505 32.2855 136.198 32.301 135.897 32.301C135.458 32.301 135.052 32.2559 134.682 32.1673C134.312 32.0771 133.989 31.9356 133.71 31.7397C133.432 31.5438 133.216 31.2903 133.06 30.9762C132.904 30.6636 132.825 30.2827 132.825 29.8348V25.9598H131.158V23.9461H132.825V21.5312H135.429V23.9461H137.72V25.9598Z" fill="#428FCB"/>
<path d="M144.334 31.0755H144.301C144.011 31.5109 143.626 31.825 143.147 32.0147C142.666 32.2044 142.16 32.2992 141.628 32.2992C141.233 32.2992 140.855 32.2464 140.49 32.1391C140.126 32.0333 139.804 31.8732 139.526 31.6617C139.248 31.4487 139.029 31.1859 138.866 30.8733C138.704 30.5608 138.623 30.1969 138.623 29.7833C138.623 29.3137 138.713 28.9172 138.892 28.5922C139.071 28.2687 139.314 27.9997 139.621 27.7867C139.928 27.5737 140.277 27.4088 140.672 27.2922C141.064 27.1756 141.473 27.0885 141.896 27.0325C142.318 26.9765 142.741 26.9423 143.165 26.9315C143.586 26.9206 143.977 26.9143 144.336 26.9143C144.336 26.4665 144.172 26.112 143.842 25.8492C143.512 25.5864 143.121 25.4542 142.67 25.4542C142.22 25.4542 141.851 25.5413 141.499 25.7139C141.146 25.8881 140.831 26.1244 140.553 26.4261L139.164 25.0499C139.65 24.6145 140.216 24.2864 140.865 24.0687C141.513 23.851 142.184 23.7422 142.878 23.7422C143.642 23.7422 144.27 23.8339 144.762 24.019C145.255 24.204 145.648 24.4746 145.942 24.8322C146.237 25.1899 146.443 25.6284 146.558 26.1493C146.674 26.6687 146.732 27.2704 146.732 27.9531V32.0971H144.336V31.0739L144.334 31.0755ZM143.692 28.5253C143.496 28.5253 143.25 28.5331 142.955 28.5502C142.661 28.5673 142.376 28.6139 142.104 28.6932C141.832 28.771 141.6 28.8892 141.409 29.0447C141.217 29.2017 141.122 29.4194 141.122 29.6993C141.122 30.001 141.256 30.2249 141.521 30.3695C141.787 30.5157 142.065 30.5872 142.355 30.5872C142.609 30.5872 142.856 30.553 143.092 30.4861C143.329 30.4193 143.541 30.3244 143.726 30.2016C143.911 30.0787 144.059 29.9217 144.169 29.732C144.278 29.5423 144.333 29.3183 144.333 29.0618V28.5253H143.691H143.692Z" fill="#428FCB"/>
<path d="M148.396 19.416H151V32.0969H148.396V19.416Z" fill="#428FCB"/>
<path d="M9.03116 27.1739C9.03116 26.8474 8.77851 26.569 8.44217 26.5317C6.89085 26.3591 5.46987 25.8709 4.35305 25.1105C3.04794 24.2241 2.33021 23.0766 2.33021 21.8808C2.33021 20.685 3.04794 19.539 4.35305 18.6511C5.76758 17.6901 7.66651 17.1614 9.70061 17.1614H9.70222C9.942 17.1614 10.1383 16.981 10.1383 16.7571V15.4043C10.1383 15.1819 9.94522 15 9.70544 15H9.70061C7.17569 15 4.78755 15.678 2.97713 16.908C2.06146 17.53 1.3389 18.2623 0.827159 19.0834C0.278402 19.965 0 20.9074 0 21.8823C0 22.8573 0.278402 23.7996 0.827159 24.6813C1.3389 25.5023 2.06146 26.2347 2.97713 26.8567C4.44638 27.855 6.29542 28.4894 8.2909 28.6931C8.68678 28.7336 9.03116 28.435 9.03116 28.0509V27.1739Z" fill="white"/>
<path d="M20.1769 22.0378C19.6652 21.1826 18.9426 20.4207 18.0269 19.7738C16.2165 18.4925 13.8284 17.7881 11.3035 17.7881H11.2986C11.0589 17.7881 10.8657 17.9778 10.8657 18.2079V19.6183C10.8657 19.85 11.0605 20.0381 11.3019 20.0381H11.3035C13.3376 20.0381 15.2365 20.5886 16.651 21.5885C17.9561 22.5106 18.6739 23.7048 18.6739 24.9488C18.6739 26.1927 17.9561 27.387 16.651 28.3091C15.4071 29.1892 13.7882 29.7194 12.0325 29.8345V21.7486C12.0325 21.2386 11.6044 20.825 11.0766 20.825H10.6598C10.1319 20.825 9.70386 21.2386 9.70386 21.7486V35.3345C9.70386 35.6999 10.0112 35.9969 10.3894 35.9969H11.3501C11.7283 35.9969 12.0357 35.6999 12.0357 35.3345V32.0923C14.2886 31.9695 16.3968 31.2838 18.0318 30.1268C18.9474 29.48 19.67 28.718 20.1817 27.8628C20.7305 26.9454 21.0089 25.9642 21.0089 24.9488C21.0089 23.9334 20.7305 22.9537 20.1817 22.0347L20.1769 22.0378Z" fill="#428FCB"/>
</g>
<defs>
<clipPath id="clip0_355_650">
<rect width="151" height="21" fill="white" transform="translate(0 15)"/>
</clipPath>
</defs>
</svg>
